<?xml version="1.0" encoding="utf-8"?>
<!-- Generator: Adobe Illustrator 28.3.0, SVG Export Plug-In . SVG Version: 6.00 Build 0)  -->
<svg version="1.1" id="Layer_1" xmlns="http://www.w3.org/2000/svg" xmlns:xlink="http://www.w3.org/1999/xlink" x="0px" y="0px"
	 viewBox="0 0 21 22" style="enable-background:new 0 0 21 22;" xml:space="preserve">
<style type="text/css">
	.st0{fill:#E2E2E2;}
</style>
<g>
	<path class="st0" d="M18.6,20.8c-0.3,0-0.7-0.2-1-0.4l-5.6-5.6C10.9,15.6,9.6,16,8.2,16c-4.1,0-7.4-3.3-7.4-7.4s3.3-7.4,7.4-7.4
		s7.4,3.3,7.4,7.4c0,1.6-0.6,3.1-1.6,4.5l5.5,5.5c0.3,0.3,0.4,0.6,0.4,1c0,0.4-0.1,0.7-0.4,1C19.3,20.7,18.9,20.8,18.6,20.8z
		 M8.2,3.8c-2.6,0-4.7,2.1-4.7,4.7s2.1,4.7,4.7,4.7s4.7-2.1,4.7-4.7S10.8,3.8,8.2,3.8z"/>
	<path d="M8.2,1.6c3.8,0,6.9,3.1,6.9,6.9c0,1.7-0.7,3.3-1.7,4.5c0.1,0.1,0.1,0.1,0.1,0.1l5.7,5.7c0.3,0.3,0.3,0.9,0,1.2
		c-0.2,0.2-0.4,0.3-0.6,0.3s-0.4-0.1-0.6-0.3l-5.7-5.7c0-0.1-0.1-0.2-0.1-0.2c-1.1,0.9-2.5,1.3-4,1.3c-3.8,0-6.9-3.1-6.9-6.9
		C1.2,4.7,4.4,1.6,8.2,1.6 M8.2,13.7c2.9,0,5.2-2.3,5.2-5.2c0-2.9-2.3-5.2-5.2-5.2S3,5.7,3,8.5C3,11.4,5.3,13.7,8.2,13.7 M8.2,0.6
		c-4.4,0-7.9,3.6-7.9,7.9s3.6,7.9,7.9,7.9c1.4,0,2.7-0.3,3.8-1l5.3,5.3c0.3,0.3,0.8,0.6,1.3,0.6c0.5,0,1-0.2,1.3-0.6
		c0.7-0.7,0.7-1.9,0-2.6L14.7,13c0.9-1.3,1.4-2.9,1.4-4.4C16.1,4.2,12.5,0.6,8.2,0.6L8.2,0.6z M8.2,12.7C5.9,12.7,4,10.9,4,8.5
		s1.9-4.2,4.2-4.2s4.2,1.9,4.2,4.2S10.5,12.7,8.2,12.7L8.2,12.7z"/>
</g>
</svg>
